<mxfile host="app.diagrams.net" agent="Mozilla/5.0 (Windows NT 10.0; Win64; x64) AppleWebKit/537.36 (KHTML, like Gecko) Chrome/129.0.0.0 Safari/537.36" version="24.7.17">
  <diagram name="Halaman-1" id="pB67WjHLefCamceNLFN1">
    <mxGraphModel dx="794" dy="446" grid="1" gridSize="10" guides="1" tooltips="1" connect="1" arrows="1" fold="1" page="1" pageScale="1" pageWidth="827" pageHeight="1169" math="0" shadow="0">
      <root>
        <mxCell id="0" />
        <mxCell id="1" parent="0" />
        <mxCell id="PD7pIvGT9TBJP-TmDbjX-12" style="edgeStyle=orthogonalEdgeStyle;rounded=0;orthogonalLoop=1;jettySize=auto;html=1;entryX=0.5;entryY=0;entryDx=0;entryDy=0;" edge="1" parent="1" source="PD7pIvGT9TBJP-TmDbjX-1" target="PD7pIvGT9TBJP-TmDbjX-10">
          <mxGeometry relative="1" as="geometry" />
        </mxCell>
        <mxCell id="PD7pIvGT9TBJP-TmDbjX-1" value="3.1" style="swimlane;whiteSpace=wrap;html=1;rounded=1;" vertex="1" parent="1">
          <mxGeometry x="300" y="120" width="170" height="160" as="geometry" />
        </mxCell>
        <mxCell id="PD7pIvGT9TBJP-TmDbjX-2" value="&lt;font style=&quot;font-size: 25px;&quot;&gt;Persiapan&lt;/font&gt;&lt;div style=&quot;font-size: 25px;&quot;&gt;&lt;font style=&quot;font-size: 25px;&quot;&gt;Pesanan&lt;/font&gt;&lt;/div&gt;" style="text;html=1;align=center;verticalAlign=middle;resizable=0;points=[];autosize=1;strokeColor=none;fillColor=none;" vertex="1" parent="PD7pIvGT9TBJP-TmDbjX-1">
          <mxGeometry x="15" y="45" width="140" height="70" as="geometry" />
        </mxCell>
        <mxCell id="PD7pIvGT9TBJP-TmDbjX-3" value="D2" style="swimlane;horizontal=0;whiteSpace=wrap;html=1;startSize=23;" vertex="1" parent="1">
          <mxGeometry x="580" y="180" width="210" height="40" as="geometry" />
        </mxCell>
        <mxCell id="PD7pIvGT9TBJP-TmDbjX-4" value="&lt;font style=&quot;font-size: 20px;&quot;&gt;Database Pesanan&lt;/font&gt;" style="text;html=1;align=center;verticalAlign=middle;resizable=0;points=[];autosize=1;strokeColor=none;fillColor=none;" vertex="1" parent="PD7pIvGT9TBJP-TmDbjX-3">
          <mxGeometry x="20" width="190" height="40" as="geometry" />
        </mxCell>
        <mxCell id="PD7pIvGT9TBJP-TmDbjX-5" style="edgeStyle=orthogonalEdgeStyle;rounded=0;orthogonalLoop=1;jettySize=auto;html=1;entryX=1;entryY=0.5;entryDx=0;entryDy=0;" edge="1" parent="1" target="PD7pIvGT9TBJP-TmDbjX-1">
          <mxGeometry relative="1" as="geometry">
            <mxPoint x="580" y="200" as="sourcePoint" />
          </mxGeometry>
        </mxCell>
        <mxCell id="PD7pIvGT9TBJP-TmDbjX-6" value="Data Pesanan" style="edgeLabel;html=1;align=center;verticalAlign=middle;resizable=0;points=[];" vertex="1" connectable="0" parent="PD7pIvGT9TBJP-TmDbjX-5">
          <mxGeometry x="-0.0709" relative="1" as="geometry">
            <mxPoint as="offset" />
          </mxGeometry>
        </mxCell>
        <mxCell id="PD7pIvGT9TBJP-TmDbjX-8" style="edgeStyle=orthogonalEdgeStyle;rounded=0;orthogonalLoop=1;jettySize=auto;html=1;entryX=0;entryY=0.5;entryDx=0;entryDy=0;" edge="1" parent="1" source="PD7pIvGT9TBJP-TmDbjX-7" target="PD7pIvGT9TBJP-TmDbjX-1">
          <mxGeometry relative="1" as="geometry" />
        </mxCell>
        <mxCell id="PD7pIvGT9TBJP-TmDbjX-9" value="Mempersiapkan Pesanan" style="edgeLabel;html=1;align=center;verticalAlign=middle;resizable=0;points=[];" vertex="1" connectable="0" parent="PD7pIvGT9TBJP-TmDbjX-8">
          <mxGeometry x="0.025" y="3" relative="1" as="geometry">
            <mxPoint as="offset" />
          </mxGeometry>
        </mxCell>
        <mxCell id="PD7pIvGT9TBJP-TmDbjX-7" value="&lt;font style=&quot;font-size: 20px;&quot;&gt;Gudang&lt;/font&gt;" style="shape=cube;whiteSpace=wrap;html=1;boundedLbl=1;backgroundOutline=1;darkOpacity=0.05;darkOpacity2=0.1;size=10;" vertex="1" parent="1">
          <mxGeometry x="20" y="165" width="120" height="70" as="geometry" />
        </mxCell>
        <mxCell id="PD7pIvGT9TBJP-TmDbjX-10" value="3.2" style="swimlane;whiteSpace=wrap;html=1;rounded=1;" vertex="1" parent="1">
          <mxGeometry x="300" y="330" width="170" height="160" as="geometry" />
        </mxCell>
        <mxCell id="PD7pIvGT9TBJP-TmDbjX-11" value="&lt;span style=&quot;font-size: 25px;&quot;&gt;Pengiriman&lt;/span&gt;&lt;div&gt;&lt;span style=&quot;font-size: 25px;&quot;&gt;Buku&lt;/span&gt;&lt;/div&gt;" style="text;html=1;align=center;verticalAlign=middle;resizable=0;points=[];autosize=1;strokeColor=none;fillColor=none;" vertex="1" parent="PD7pIvGT9TBJP-TmDbjX-10">
          <mxGeometry x="10" y="45" width="150" height="70" as="geometry" />
        </mxCell>
        <mxCell id="PD7pIvGT9TBJP-TmDbjX-13" value="D3" style="swimlane;horizontal=0;whiteSpace=wrap;html=1;startSize=23;" vertex="1" parent="1">
          <mxGeometry x="580" y="375" width="230" height="40" as="geometry" />
        </mxCell>
        <mxCell id="PD7pIvGT9TBJP-TmDbjX-14" value="&lt;font style=&quot;font-size: 20px;&quot;&gt;Database Pengiriman&lt;/font&gt;" style="text;html=1;align=center;verticalAlign=middle;resizable=0;points=[];autosize=1;strokeColor=none;fillColor=none;" vertex="1" parent="PD7pIvGT9TBJP-TmDbjX-13">
          <mxGeometry x="20" width="220" height="40" as="geometry" />
        </mxCell>
        <mxCell id="PD7pIvGT9TBJP-TmDbjX-21" value="&lt;font style=&quot;font-size: 20px;&quot;&gt;Sekolah&lt;/font&gt;" style="shape=cube;whiteSpace=wrap;html=1;boundedLbl=1;backgroundOutline=1;darkOpacity=0.05;darkOpacity2=0.1;size=10;" vertex="1" parent="1">
          <mxGeometry x="400" y="550" width="120" height="70" as="geometry" />
        </mxCell>
        <mxCell id="PD7pIvGT9TBJP-TmDbjX-22" value="&lt;font style=&quot;font-size: 20px;&quot;&gt;Pelanggan&lt;/font&gt;" style="shape=cube;whiteSpace=wrap;html=1;boundedLbl=1;backgroundOutline=1;darkOpacity=0.05;darkOpacity2=0.1;size=10;" vertex="1" parent="1">
          <mxGeometry x="620" y="550" width="120" height="70" as="geometry" />
        </mxCell>
        <mxCell id="PD7pIvGT9TBJP-TmDbjX-23" style="edgeStyle=orthogonalEdgeStyle;rounded=0;orthogonalLoop=1;jettySize=auto;html=1;entryX=0.482;entryY=0.025;entryDx=0;entryDy=0;entryPerimeter=0;" edge="1" parent="1" source="PD7pIvGT9TBJP-TmDbjX-10" target="PD7pIvGT9TBJP-TmDbjX-14">
          <mxGeometry relative="1" as="geometry">
            <Array as="points">
              <mxPoint x="500" y="410" />
              <mxPoint x="500" y="310" />
              <mxPoint x="706" y="310" />
            </Array>
          </mxGeometry>
        </mxCell>
        <mxCell id="PD7pIvGT9TBJP-TmDbjX-24" value="Mencatat Status Pengiriman" style="edgeLabel;html=1;align=center;verticalAlign=middle;resizable=0;points=[];" vertex="1" connectable="0" parent="PD7pIvGT9TBJP-TmDbjX-23">
          <mxGeometry x="0.1542" y="2" relative="1" as="geometry">
            <mxPoint as="offset" />
          </mxGeometry>
        </mxCell>
        <mxCell id="PD7pIvGT9TBJP-TmDbjX-25" style="edgeStyle=orthogonalEdgeStyle;rounded=0;orthogonalLoop=1;jettySize=auto;html=1;entryX=0.517;entryY=0.038;entryDx=0;entryDy=0;entryPerimeter=0;" edge="1" parent="1" source="PD7pIvGT9TBJP-TmDbjX-14" target="PD7pIvGT9TBJP-TmDbjX-22">
          <mxGeometry relative="1" as="geometry">
            <Array as="points">
              <mxPoint x="710" y="440" />
              <mxPoint x="682" y="440" />
            </Array>
          </mxGeometry>
        </mxCell>
        <mxCell id="PD7pIvGT9TBJP-TmDbjX-28" value="Data Pengiriman" style="edgeLabel;html=1;align=center;verticalAlign=middle;resizable=0;points=[];" vertex="1" connectable="0" parent="PD7pIvGT9TBJP-TmDbjX-25">
          <mxGeometry x="0.3723" y="-2" relative="1" as="geometry">
            <mxPoint as="offset" />
          </mxGeometry>
        </mxCell>
        <mxCell id="PD7pIvGT9TBJP-TmDbjX-26" style="edgeStyle=orthogonalEdgeStyle;rounded=0;orthogonalLoop=1;jettySize=auto;html=1;entryX=0.65;entryY=0.029;entryDx=0;entryDy=0;entryPerimeter=0;exitX=0.103;exitY=0.992;exitDx=0;exitDy=0;exitPerimeter=0;" edge="1" parent="1" source="PD7pIvGT9TBJP-TmDbjX-14" target="PD7pIvGT9TBJP-TmDbjX-21">
          <mxGeometry relative="1" as="geometry" />
        </mxCell>
        <mxCell id="PD7pIvGT9TBJP-TmDbjX-27" value="Data Pengiriman" style="edgeLabel;html=1;align=center;verticalAlign=middle;resizable=0;points=[];" vertex="1" connectable="0" parent="PD7pIvGT9TBJP-TmDbjX-26">
          <mxGeometry x="-0.0178" relative="1" as="geometry">
            <mxPoint as="offset" />
          </mxGeometry>
        </mxCell>
      </root>
    </mxGraphModel>
  </diagram>
</mxfile>
